<svg width="122" height="127" viewBox="0 0 122 127" fill="none" xmlns="http://www.w3.org/2000/svg">
<path d="M60.6857 18C47.3208 18 39.9241 25.0299 40.0593 38.5755C40.2553 57.1277 48.0219 68.3823 60.6857 68.1859C60.6857 68.1859 81.3021 69.0342 81.3021 38.5755C81.3021 25.0299 74.3367 18 60.6857 18Z" fill="white"/>
<path d="M97.1517 82.2671L76.5515 73.9303L71.7278 69.8039C70.4539 68.7113 68.572 68.792 67.3896 69.9841L60.6834 76.7543L53.9573 69.9823C52.7748 68.7917 50.8953 68.7148 49.6231 69.8039L44.7982 73.9303L24.1981 82.268C17.5645 84.9495 17.5702 108.796 17 110.984H104.359C103.791 108.8 103.788 84.9463 97.1517 82.2671Z" fill="white"/>
</svg>
