<svg width="199" height="215" viewBox="0 0 199 215" fill="none" xmlns="http://www.w3.org/2000/svg">
<path d="M129.458 106.445C129.248 103.883 126.915 101.767 124.256 101.727L106.657 101.466C105.634 101.451 104.598 100.582 104.439 99.6055L100.562 75.7809C100.421 74.9178 99.5885 71.3991 95.043 71.3991L73.1576 72.3201C70.2744 72.4412 67.9306 73.796 67.9306 77.5982C67.9306 77.5982 67.8384 130.552 67.7264 132.471L66.9607 145.573C66.8582 147.323 66.1529 150.155 65.4203 151.758L56.5619 171.135C55.9772 172.413 55.9868 173.827 56.5885 175.013C57.1901 176.199 58.34 177.072 59.7441 177.409L62.6933 178.116C63.1321 178.222 63.5915 178.275 64.0583 178.275C66.4389 178.275 68.7162 176.939 69.7252 174.952L78.1457 158.364C79.0758 156.532 80.2333 153.427 80.7265 151.442L85.4779 132.314L96.9765 149.308C97.9245 150.709 98.9269 153.398 99.1214 155.062L101.344 174.088C101.661 176.797 104.213 179 107.034 179L110.397 178.989C111.84 178.984 113.152 178.428 114.091 177.421C115.03 176.415 115.469 175.097 115.327 173.71L113.005 151.089C112.791 149.003 112.016 145.835 111.24 143.877L100.937 117.869L100.873 112.386L124.819 111.529C126.156 111.482 127.378 110.928 128.259 109.972C129.14 109.016 129.567 107.779 129.462 106.489L129.458 106.445ZM107.034 177.398V177.398V177.398Z" fill="white"/>
<path d="M80.1537 66.3711C81.9961 66.3711 83.8179 66.0675 85.5684 65.4681C89.6545 64.0707 92.9324 61.2189 94.7987 57.4381C96.1183 54.7648 96.6161 51.8534 96.2857 48.9815L101.724 48.3885C103.619 48.1819 105.542 46.7211 106.198 44.9905L108.02 40.183C108.408 39.1559 108.306 38.1167 107.738 37.3312C107.185 36.5656 106.252 36.1264 105.179 36.1264C105.055 36.1264 104.926 36.1321 104.794 36.1443L89.0698 37.5897C86.4776 35.9396 83.3949 35 80.1521 35C78.3104 35 76.4893 35.3034 74.7381 35.9021C70.6523 37.3005 67.3743 40.1525 65.5078 43.9333C63.6413 47.7141 63.4102 51.9707 64.8571 55.9187C67.1479 62.1707 73.2952 66.3711 80.1537 66.3711Z" fill="white"/>
<path d="M148.858 90.9162L147.293 69.1826C147.107 66.6015 144.778 64.5019 142.092 64.5019L112.031 64.5525C110.685 64.5547 109.448 65.0708 108.547 66.0056C107.647 66.9401 107.202 68.1693 107.296 69.467L108.861 91.2007C109.046 93.7818 111.375 95.8814 114.053 95.8814L144.123 95.8307C145.469 95.8285 146.706 95.3127 147.606 94.378C148.507 93.4432 148.951 92.2137 148.858 90.9162Z" fill="white"/>
</svg>
