<svg width="45" height="45" viewBox="0 0 45 45" fill="none" xmlns="http://www.w3.org/2000/svg">
<path d="M36.7238 6.79245H27.6832C25.9349 6.79245 24.6325 7.31296 23.3284 8.53266C23.1075 8.73931 23.1075 9.0733 23.3284 9.27989C23.5494 9.48655 23.9065 9.48655 24.1274 9.27989C25.2281 8.25044 26.2254 7.84933 27.6832 7.84933H36.7238C37.6584 7.84933 38.419 8.56065 38.419 9.43471V17.8901C38.419 19.2541 37.9901 20.1863 36.8889 21.2157L20.1082 36.9322C19.4674 37.5309 18.3504 37.5304 17.7113 36.9322L7.32293 27.2164C7.00258 26.9168 6.82625 26.5188 6.82625 26.095C6.82625 25.6717 7.00251 25.2737 7.32293 24.9746L22.4898 10.8098C22.7227 10.8653 22.9566 10.9208 23.1984 10.9815C25.4976 11.5575 27.3114 12.1526 28.6635 12.6842C28.3974 13.1444 28.2482 13.6608 28.2482 14.1909C28.2482 15.9396 29.7687 17.3616 31.6385 17.3616C33.5082 17.3616 35.0287 15.9396 35.0287 14.1909C35.0287 12.4422 33.5082 11.0201 31.6385 11.0201C31.326 11.0201 31.0734 11.2569 31.0734 11.5485C31.0734 11.8402 31.326 12.077 31.6385 12.077C32.885 12.077 33.8986 13.025 33.8986 14.1908C33.8986 15.3566 32.8849 16.3046 31.6385 16.3046C30.392 16.3046 29.3783 15.3566 29.3783 14.1908C29.3783 13.8103 29.4896 13.4388 29.6947 13.1154C30.6734 13.5535 31.2853 13.9229 31.5272 14.1586C31.4238 14.1861 31.2639 14.2167 31.0226 14.2363C30.7119 14.2621 30.4819 14.5185 30.5096 14.8091C30.5356 15.0839 30.7819 15.2916 31.0718 15.2916C31.0882 15.2916 31.1051 15.2905 31.1221 15.2895C31.4696 15.2604 32.5268 15.1732 32.7302 14.4645C33.2868 12.5203 25.1315 10.3716 23.4912 9.96043C20.9818 9.33154 18.5713 8.90138 16.7044 8.74922C14.4086 8.56108 13.2916 8.80576 13.0819 9.5403C12.9808 9.8928 12.713 10.8287 17.2937 12.5182C17.5853 12.6249 17.9125 12.4923 18.0272 12.2201C18.1413 11.949 17.9989 11.6419 17.7091 11.5352C15.4958 10.7187 14.5787 10.1205 14.2838 9.83886C14.9816 9.64756 17.3644 9.70305 21.201 10.519L6.52397 24.2269C5.99001 24.7263 5.69621 25.3895 5.69621 26.095C5.69621 26.801 5.99001 27.4647 6.52397 27.9636L16.9123 37.6794C17.4456 38.1782 18.1548 38.453 18.9097 38.453C19.664 38.453 20.3731 38.1783 20.9077 37.6789L37.6883 21.963C38.993 20.7433 39.549 19.5252 39.549 17.8901V9.43477C39.5491 7.97777 38.2816 6.79245 36.7238 6.79245Z" fill="white"/>
<path d="M35.0146 26.1209C34.7445 25.9724 34.3987 26.0575 34.2411 26.3096L27.7645 36.6415C27.2967 37.3988 26.2587 37.6599 25.4739 37.236L24.2116 36.4713C23.95 36.3122 23.5996 36.3825 23.4307 36.6272C23.2606 36.8719 23.3358 37.1995 23.5974 37.3581L24.8839 38.137C25.3275 38.3769 25.8123 38.4906 26.292 38.4906C27.269 38.4906 28.2194 38.0176 28.7409 37.1731L35.2157 26.8438C35.3734 26.5923 35.2836 26.2684 35.0146 26.1209Z" fill="white"/>
<path d="M19.2075 22.1178V29.5163C19.2075 29.808 19.4601 30.0447 19.7725 30.0447C20.085 30.0447 20.3376 29.808 20.3376 29.5163V22.1178C20.3376 21.8261 20.085 21.5894 19.7725 21.5894C19.4601 21.5894 19.2075 21.8261 19.2075 22.1178Z" fill="white"/>
<path d="M22.5978 23.7032C22.5978 24.2861 23.1046 24.7602 23.7279 24.7602C24.3512 24.7602 24.858 24.2862 24.858 23.7032C24.858 23.1203 24.3512 22.6463 23.7279 22.6463C23.1046 22.6463 22.5978 23.1203 22.5978 23.7032Z" fill="white"/>
<path d="M14.6871 26.874C14.6871 27.4569 15.194 27.9309 15.8173 27.9309C16.4405 27.9309 16.9474 27.4569 16.9474 26.874C16.9474 26.2911 16.4405 25.817 15.8173 25.817C15.194 25.817 14.6871 26.2911 14.6871 26.874Z" fill="white"/>
</svg>
