<svg width="452" height="507" viewBox="0 0 452 507" fill="none" xmlns="http://www.w3.org/2000/svg">
<g clip-path="url(#clip0_9_348)">
<path d="M390.518 179.683H342V130.834L258.978 53H62V413H342V362.41H390.518V179.683ZM360.518 332.41H150.518V209.683H360.518V332.41Z" fill="white"/>
<path d="M217.151 287.942H185.294V236.11H173.151V298.59H217.151V287.942Z" fill="white"/>
<path d="M225.202 289.218C227.871 292.181 231.068 294.557 234.795 296.346C238.52 298.136 242.671 299.03 247.246 299.03C251.646 299.03 255.723 298.165 259.478 296.434C263.232 294.704 266.458 292.386 269.158 289.482C271.856 286.578 273.969 283.234 275.494 279.45C277.019 275.666 277.782 271.692 277.782 267.526C277.782 263.596 277.048 259.724 275.583 255.91C274.115 252.097 272.062 248.694 269.423 245.702C266.782 242.71 263.6 240.29 259.875 238.442C256.148 236.594 252.027 235.67 247.511 235.67C243.111 235.67 239.032 236.536 235.279 238.266C231.524 239.998 228.283 242.33 225.555 245.262C222.826 248.197 220.685 251.569 219.131 255.382C217.575 259.196 216.799 263.185 216.799 267.35C216.799 271.341 217.532 275.242 218.999 279.054C220.464 282.868 222.532 286.256 225.202 289.218ZM230.307 259.738C231.099 257.245 232.256 255.016 233.783 253.05C235.308 251.085 237.216 249.501 239.504 248.298C241.792 247.096 244.402 246.494 247.336 246.494C250.151 246.494 252.688 247.066 254.947 248.21C257.205 249.354 259.112 250.894 260.668 252.83C262.222 254.766 263.425 256.996 264.275 259.518C265.125 262.041 265.551 264.652 265.551 267.349C265.551 269.932 265.154 272.468 264.362 274.961C263.57 277.455 262.396 279.699 260.842 281.693C259.286 283.688 257.379 285.287 255.121 286.489C252.862 287.692 250.267 288.293 247.334 288.293C244.458 288.293 241.892 287.707 239.634 286.533C237.374 285.36 235.468 283.805 233.914 281.869C232.358 279.933 231.171 277.704 230.35 275.181C229.528 272.66 229.118 270.048 229.118 267.349C229.118 264.769 229.515 262.232 230.307 259.738Z" fill="white"/>
<path d="M292.082 289.79C294.751 292.665 297.891 294.924 301.498 296.566C305.106 298.209 308.963 299.03 313.07 299.03C319.699 299.03 325.506 296.537 330.494 291.55V298.59H340.526V266.47H317.91V275.358H330.494V279.758C325.624 285.449 320.168 288.294 314.126 288.294C311.486 288.294 309.036 287.752 306.778 286.666C304.519 285.581 302.568 284.1 300.926 282.222C299.282 280.345 297.991 278.13 297.054 275.578C296.115 273.026 295.646 270.285 295.646 267.35C295.646 264.534 296.071 261.865 296.922 259.342C297.772 256.821 298.975 254.59 300.529 252.654C302.083 250.718 303.961 249.193 306.161 248.078C308.361 246.964 310.781 246.406 313.422 246.406C316.766 246.406 319.86 247.228 322.705 248.87C325.55 250.514 327.766 252.89 329.35 255.998L338.414 249.31C336.303 245.145 333.148 241.83 328.954 239.366C324.759 236.902 319.728 235.67 313.862 235.67C309.52 235.67 305.502 236.506 301.806 238.178C298.11 239.85 294.898 242.109 292.169 244.954C289.441 247.801 287.299 251.114 285.745 254.898C284.19 258.682 283.413 262.716 283.413 266.998C283.413 271.516 284.19 275.725 285.745 279.626C287.3 283.528 289.412 286.916 292.082 289.79Z" fill="white"/>
</g>
<defs>
<clipPath id="clip0_9_348">
<rect width="360" height="360" fill="white" transform="translate(46 74)"/>
</clipPath>
</defs>
</svg>
