<svg width="1010" height="1069" viewBox="0 0 1010 1069" fill="none" xmlns="http://www.w3.org/2000/svg">
<path d="M211.667 854.994H371.667V721.662H211.667V854.994ZM251.667 748.327H331.667C339.04 748.327 345 754.301 345 761.66C345 769.019 339.04 774.993 331.667 774.993H251.667C244.293 774.993 238.334 769.019 238.334 761.66C238.334 754.301 244.293 748.327 251.667 748.327ZM251.667 801.661H305C312.373 801.661 318.332 807.635 318.332 814.994C318.332 822.354 312.373 828.327 305 828.327H251.667C244.293 828.327 238.334 822.354 238.334 814.994C238.334 807.635 244.293 801.661 251.667 801.661Z" fill="white"/>
<path d="M424.999 401.662C427.946 401.662 430.893 402.636 433.332 404.582L478.332 440.582V294.997H371.665V440.582L416.665 404.582C419.106 402.636 422.052 401.662 424.999 401.662Z" fill="white"/>
<path d="M646.199 488.915C639.799 492.903 632.493 494.995 624.999 494.995C616.493 494.995 608.372 492.354 601.479 487.354C588.185 477.687 582.199 461.154 586.212 445.248L607.371 360.595L543.385 296.609C542.879 296.103 542.465 295.53 541.985 294.995H504.999V443.275C504.999 453.115 499.493 461.889 490.613 466.142C481.72 470.409 471.44 469.221 463.773 463.089L424.999 432.075L386.226 463.089C381.599 466.782 376.04 468.689 370.414 468.689C366.693 468.689 362.934 467.848 359.387 466.142C350.507 461.889 345.001 453.115 345.001 443.275V294.995H170.986C134.6 294.995 105 324.901 105 361.662V868.328C105 905.088 134.6 934.995 170.986 934.995H678.332C715.091 934.995 744.999 905.089 744.999 868.328V447.009L730.185 436.423L646.199 488.915ZM398.332 868.327C398.332 875.686 392.373 881.66 384.999 881.66H198.333C190.959 881.66 185 875.686 185 868.327V708.327C185 700.968 190.959 694.994 198.333 694.994H384.999C392.373 694.994 398.332 700.968 398.332 708.327V868.327Z" fill="white"/>
<path d="M904.269 263.986C902.602 259.159 898.348 255.706 893.283 255.092L791.363 242.639L743.696 142.6C741.496 137.947 736.802 135 731.669 135C726.522 135 721.828 137.947 719.628 142.6L671.961 242.641L570.055 255.094C564.988 255.708 560.723 259.161 559.055 263.987C557.388 268.801 558.629 274.147 562.241 277.761L636.894 352.414L612.068 451.76C610.735 457.04 612.762 462.587 617.161 465.787C619.494 467.481 622.241 468.334 625.002 468.334C627.443 468.334 629.896 467.654 632.069 466.307L731.175 404.361L817.255 465.854C821.549 468.921 827.281 469.16 831.814 466.454C836.361 463.734 838.894 458.601 838.228 453.348L825.695 353.148L901.095 277.762C904.695 274.145 905.936 268.8 904.269 263.986Z" fill="white"/>
</svg>
