<svg width="987" height="1040" viewBox="0 0 987 1040" fill="none" xmlns="http://www.w3.org/2000/svg">
<path d="M889.249 347.114L855.952 280.521H128.048L94.7516 347.114C90.7094 355.196 91.1516 364.811 95.8891 372.504C100.645 380.181 109.053 384.868 118.088 384.868H865.914C874.948 384.868 883.356 380.181 888.113 372.504C892.85 364.812 893.292 355.2 889.249 347.114Z" fill="white"/>
<path d="M796.348 124H187.652C163.672 124 144.173 143.497 144.173 167.478V228.347H839.825V167.478C839.827 143.497 820.328 124 796.348 124Z" fill="white"/>
<path d="M92 437.044V463.131C92 515.866 134.919 558.783 187.652 558.783C216.319 558.783 242.102 546.095 259.645 526.039C278.686 546.199 305.639 558.783 335.478 558.783C366.608 558.783 394.598 545.077 413.739 523.388C432.88 545.077 460.87 558.783 492 558.783C523.13 558.783 551.12 545.077 570.261 523.388C589.402 545.077 617.391 558.783 648.522 558.783C678.363 558.783 705.316 546.199 724.355 526.039C741.897 546.097 767.68 558.783 796.348 558.783C849.083 558.783 892 515.864 892 463.131V437.044H92Z" fill="white"/>
<path d="M796.348 610.956C770.55 610.956 745.5 604.197 723.505 591.73C700.678 604.195 674.862 610.956 648.522 610.956C620.787 610.956 593.834 603.552 570.261 589.93C546.687 603.552 519.734 610.956 492 610.956C464.266 610.956 437.312 603.552 413.739 589.93C390.166 603.55 363.212 610.956 335.478 610.956C309.138 610.956 283.322 604.197 260.495 591.73C238.5 604.195 213.45 610.956 187.652 610.956C165.939 610.956 145.37 606.134 126.781 597.683V897.912C126.781 912.314 138.467 924 152.869 924H544.173H752.869H831.13C845.531 924 857.217 912.314 857.217 897.912V597.684C838.63 606.133 818.061 610.956 796.348 610.956ZM492 793.566C492 807.967 480.314 819.653 465.912 819.653H257.217C242.816 819.653 231.13 807.967 231.13 793.566V689.217C231.13 674.816 242.816 663.13 257.217 663.13H465.912C480.314 663.13 492 674.816 492 689.217V793.566ZM752.87 871.827H596.348V689.217C596.348 674.811 608.028 663.13 622.436 663.13H726.784C741.191 663.13 752.872 674.809 752.872 689.217V871.827H752.87Z" fill="white"/>
</svg>
