<svg width="162" height="158" viewBox="0 0 162 158" fill="none" xmlns="http://www.w3.org/2000/svg">
<path d="M64.9618 12.3177L0.0883789 120.944H126.641L64.9618 12.3177Z" fill="#FCD400"/>
<path d="M61.6892 45.4184L12.9209 129.961H141.637L77.5905 17.5123L65.0983 39.2285" stroke="black" stroke-width="1.5" stroke-miterlimit="10" stroke-linecap="round" stroke-linejoin="round"/>
<path d="M72.7539 104.766C72.7539 101.974 74.6679 99.9607 77.2842 99.9607C80.0476 99.9607 81.8144 101.974 81.8144 104.766C81.8144 107.478 80.0476 109.572 77.2842 109.572C74.6 109.56 72.7539 107.478 72.7539 104.766Z" stroke="black" stroke-width="1.5" stroke-miterlimit="10"/>
<path d="M74.6003 91.0478L73.7055 60.2127C73.6489 58.1761 75.2685 56.4941 77.2845 56.4941C79.3004 56.4941 80.92 58.1761 80.8634 60.2127L79.9686 91.0478C79.9233 92.5123 78.7341 93.6794 77.2845 93.6794C75.8234 93.6794 74.6342 92.5123 74.6003 91.0478Z" fill="#1C2A38" stroke="black" stroke-width="1.5" stroke-miterlimit="10"/>
<path d="M6.71361 30.8188C6.64566 30.5556 6.50975 30.3382 6.32854 30.1437C6.22661 30.0636 6.12467 29.9836 6.02274 29.9035C5.7849 29.7662 5.53574 29.6975 5.2526 29.6975C5.04873 29.6861 4.84488 29.7318 4.66367 29.8348C4.47113 29.892 4.31257 30.0064 4.17666 30.1552C4.02943 30.2925 3.9275 30.4527 3.85954 30.6472C3.76894 30.8302 3.72363 31.0248 3.72363 31.2421L3.78026 31.654C3.84822 31.9172 3.98412 32.1346 4.16533 32.3291C4.26726 32.4092 4.3692 32.4893 4.47113 32.5694C4.70897 32.7067 4.95814 32.7753 5.24128 32.7753C5.44514 32.7868 5.649 32.741 5.83021 32.638C6.02274 32.5808 6.1813 32.4664 6.31721 32.3176C6.46445 32.1803 6.56638 32.0202 6.63433 31.8257C6.72494 31.6426 6.77024 31.4481 6.77024 31.2307L6.71361 30.8188Z" fill="black"/>
<path d="M18.447 30.8188C18.3791 30.5556 18.2431 30.3382 18.0619 30.1437C17.96 30.0636 17.8581 29.9836 17.7561 29.9035C17.5183 29.7662 17.2691 29.6975 16.986 29.6975C16.7821 29.6861 16.5783 29.7318 16.3971 29.8348C16.2045 29.892 16.046 30.0064 15.9101 30.1552C15.7628 30.2925 15.6609 30.4527 15.5929 30.6472C15.5023 30.8302 15.457 31.0248 15.457 31.2421L15.5137 31.654C15.5816 31.9172 15.7175 32.1346 15.8987 32.3291C16.0007 32.4092 16.1026 32.4893 16.2045 32.5694C16.4424 32.7067 16.6915 32.7753 16.9747 32.7753C17.1785 32.7868 17.3824 32.741 17.5636 32.638C17.7561 32.5808 17.9147 32.4664 18.0506 32.3176C18.1978 32.1803 18.2998 32.0202 18.3677 31.8257C18.4583 31.6426 18.5036 31.4481 18.5036 31.2307L18.447 30.8188Z" fill="black"/>
<path d="M30.1916 30.8188C30.1237 30.5556 29.9878 30.3382 29.8066 30.1437C29.7046 30.0636 29.6027 29.9836 29.5008 29.9035C29.2629 29.7662 29.0138 29.6975 28.7306 29.6975C28.5268 29.6861 28.3229 29.7318 28.1417 29.8348C27.9491 29.892 27.7906 30.0064 27.6547 30.1552C27.5074 30.2925 27.4055 30.4527 27.3376 30.6472C27.247 30.8302 27.2017 31.0248 27.2017 31.2421L27.2583 31.654C27.3262 31.9172 27.4621 32.1346 27.6434 32.3291C27.7453 32.4092 27.8472 32.4893 27.9491 32.5694C28.187 32.7067 28.4362 32.7753 28.7193 32.7753C28.9232 32.7868 29.127 32.741 29.3082 32.638C29.5008 32.5808 29.6593 32.4664 29.7952 32.3176C29.9425 32.1803 30.0444 32.0202 30.1124 31.8257C30.203 31.6426 30.2483 31.4481 30.2483 31.2307L30.1916 30.8188Z" fill="black"/>
<path d="M6.71361 42.6839C6.64566 42.4208 6.50975 42.2034 6.32854 42.0089C6.22661 41.9288 6.12467 41.8487 6.02274 41.7686C5.7849 41.6313 5.53574 41.5626 5.2526 41.5626C5.04873 41.5512 4.84488 41.597 4.66367 41.6999C4.47113 41.7571 4.31257 41.8716 4.17666 42.0203C4.02943 42.1576 3.9275 42.3178 3.85954 42.5123C3.76894 42.6954 3.72363 42.8899 3.72363 43.1072L3.78026 43.5191C3.84822 43.7823 3.98412 43.9997 4.16533 44.1942C4.26726 44.2743 4.3692 44.3544 4.47113 44.4345C4.70897 44.5718 4.95814 44.6404 5.24128 44.6404C5.44514 44.6519 5.649 44.6061 5.83021 44.5031C6.02274 44.4459 6.1813 44.3315 6.31721 44.1828C6.46445 44.0455 6.56638 43.8853 6.63433 43.6908C6.72494 43.5077 6.77024 43.3132 6.77024 43.0958L6.71361 42.6839Z" fill="black"/>
<path d="M18.447 42.6839C18.3791 42.4208 18.2431 42.2034 18.0619 42.0089C17.96 41.9288 17.8581 41.8487 17.7561 41.7686C17.5183 41.6313 17.2691 41.5626 16.986 41.5626C16.7821 41.5512 16.5783 41.597 16.3971 41.6999C16.2045 41.7571 16.046 41.8716 15.9101 42.0203C15.7628 42.1576 15.6609 42.3178 15.5929 42.5123C15.5023 42.6954 15.457 42.8899 15.457 43.1072L15.5137 43.5191C15.5816 43.7823 15.7175 43.9997 15.8987 44.1942C16.0007 44.2743 16.1026 44.3544 16.2045 44.4345C16.4424 44.5718 16.6915 44.6404 16.9747 44.6404C17.1785 44.6519 17.3824 44.6061 17.5636 44.5031C17.7561 44.4459 17.9147 44.3315 18.0506 44.1828C18.1978 44.0455 18.2998 43.8853 18.3677 43.6908C18.4583 43.5077 18.5036 43.3132 18.5036 43.0958L18.447 42.6839Z" fill="black"/>
<path d="M30.1921 42.6839C30.1242 42.4208 29.9883 42.2034 29.807 42.0089C29.7051 41.9288 29.6032 41.8487 29.5013 41.7686C29.2634 41.6313 29.0143 41.5626 28.7311 41.5626C28.5273 41.5512 28.3234 41.597 28.1422 41.6999C27.9496 41.7571 27.7911 41.8716 27.6552 42.0203C27.5079 42.1576 27.406 42.3178 27.3381 42.5123C27.2474 42.6954 27.2021 42.8899 27.2021 43.1072L27.2588 43.5191C27.3267 43.7823 27.4626 43.9997 27.6438 44.1942C27.7458 44.2743 27.8477 44.3544 27.9496 44.4345C28.1875 44.5718 28.4366 44.6404 28.7198 44.6404C28.9236 44.6519 29.1275 44.6061 29.3087 44.5031C29.5013 44.4459 29.6598 44.3315 29.7957 44.1828C29.943 44.0455 30.0449 43.8853 30.1128 43.6908C30.2035 43.5077 30.2487 43.3132 30.2487 43.0958L30.1921 42.6839Z" fill="black"/>
<path d="M6.71361 54.5373C6.64566 54.2741 6.50975 54.0568 6.32854 53.8622C6.22661 53.7822 6.12467 53.7021 6.02274 53.622C5.7849 53.4847 5.53574 53.416 5.2526 53.416C5.04873 53.4046 4.84488 53.4504 4.66367 53.5533C4.47113 53.6105 4.31257 53.7249 4.17666 53.8737C4.02943 54.011 3.9275 54.1712 3.85954 54.3657C3.76894 54.5487 3.72363 54.7432 3.72363 54.9606L3.78026 55.3725C3.84822 55.6357 3.98412 55.8531 4.16533 56.0476C4.26726 56.1277 4.3692 56.2078 4.47113 56.2879C4.70897 56.4252 4.95814 56.4938 5.24128 56.4938C5.44514 56.5053 5.649 56.4595 5.83021 56.3565C6.02274 56.2993 6.1813 56.1849 6.31721 56.0362C6.46445 55.8989 6.56638 55.7387 6.63433 55.5442C6.72494 55.3611 6.77024 55.1666 6.77024 54.9492L6.71361 54.5373Z" fill="black"/>
<path d="M18.447 54.5373C18.3791 54.2741 18.2431 54.0568 18.0619 53.8622C17.96 53.7822 17.8581 53.7021 17.7561 53.622C17.5183 53.4847 17.2691 53.416 16.986 53.416C16.7821 53.4046 16.5783 53.4504 16.3971 53.5533C16.2045 53.6105 16.046 53.7249 15.9101 53.8737C15.7628 54.011 15.6609 54.1712 15.5929 54.3657C15.5023 54.5487 15.457 54.7432 15.457 54.9606L15.5137 55.3725C15.5816 55.6357 15.7175 55.8531 15.8987 56.0476C16.0007 56.1277 16.1026 56.2078 16.2045 56.2879C16.4424 56.4252 16.6915 56.4938 16.9747 56.4938C17.1785 56.5053 17.3824 56.4595 17.5636 56.3565C17.7561 56.2993 17.9147 56.1849 18.0506 56.0362C18.1978 55.8989 18.2998 55.7387 18.3677 55.5442C18.4583 55.3611 18.5036 55.1666 18.5036 54.9492L18.447 54.5373Z" fill="black"/>
<path d="M30.1921 54.5373C30.1242 54.2741 29.9883 54.0568 29.807 53.8622C29.7051 53.7822 29.6032 53.7021 29.5013 53.622C29.2634 53.4847 29.0143 53.416 28.7311 53.416C28.5273 53.4046 28.3234 53.4504 28.1422 53.5533C27.9496 53.6105 27.7911 53.7249 27.6552 53.8737C27.5079 54.011 27.406 54.1712 27.3381 54.3657C27.2474 54.5487 27.2021 54.7432 27.2021 54.9606L27.2588 55.3725C27.3267 55.6357 27.4626 55.8531 27.6438 56.0476C27.7458 56.1277 27.8477 56.2078 27.9496 56.2879C28.1875 56.4252 28.4366 56.4938 28.7198 56.4938C28.9236 56.5053 29.1275 56.4595 29.3087 56.3565C29.5013 56.2993 29.6598 56.1849 29.7957 56.0362C29.943 55.8989 30.0449 55.7387 30.1128 55.5442C30.2035 55.3611 30.2487 55.1666 30.2487 54.9492L30.1921 54.5373Z" fill="black"/>
<path d="M111.997 155.475C118.056 158.061 124.659 156.642 130.345 153.736C136.234 150.727 141.274 146.162 145.668 141.253C154.264 131.665 160.709 119.377 160.041 106.128C159.735 100.041 158.025 93.9308 154.65 88.8279C153.234 86.6769 151.376 84.4572 149.202 82.7295C150.278 78.1872 149.451 73.1872 146.925 69.2742C143.607 64.1254 138.137 60.7387 132.429 58.9195C130.99 58.4618 129.529 58.0957 128.046 57.7982M147.197 81.3451C144.796 79.9377 142.112 79.2398 139.258 79.892C136.596 80.4984 133.992 82.4435 133.38 85.2467C132.825 87.8096 133.81 90.7729 136.075 92.1917C138.794 93.8965 142.225 92.4205 144.502 90.6128C146.314 89.1711 147.605 87.1917 148.466 85.0521L147.197 81.3451Z" stroke="black" stroke-width="2" stroke-miterlimit="10" stroke-dasharray="5 5"/>
<path d="M135.079 146.345C134.943 147.569 135.204 148.77 135.827 149.72C136.563 150.841 137.729 151.391 138.783 151.791C138.794 151.791 138.805 151.803 138.817 151.803C140.176 152.306 141.24 152.329 142.361 151.894C142.95 151.665 143.573 151.425 144.038 151.024C144.559 150.578 144.944 149.926 145.295 149.297C146.45 147.237 145.906 144.537 143.97 142.729C142.713 141.551 140.912 141.013 139.27 141.299C136.982 141.448 135.34 143.976 135.079 146.345ZM143.913 149.194C143.562 149.709 143.29 150.063 142.826 150.281C142.441 150.464 141.999 150.67 141.569 150.796C140.606 151.07 139.666 150.738 138.703 150.327C137.673 149.892 137.027 149.331 136.665 148.565C136.189 147.558 136.291 146.516 136.449 145.83C136.88 144.068 138.16 142.386 140.074 142.592C140.198 142.603 140.312 142.581 140.425 142.512C140.833 142.546 141.229 142.638 141.603 142.787C142.305 143.05 142.928 143.473 143.437 144.045C144.026 144.709 144.423 145.498 144.593 146.333C144.796 147.34 144.581 148.221 143.913 149.194Z" fill="black" stroke="black" stroke-width="0.5" stroke-miterlimit="10"/>
<path d="M144.592 146.333C144.434 145.498 144.026 144.709 143.437 144.045C142.927 143.473 142.305 143.05 141.602 142.787C141.229 142.649 140.832 142.558 140.425 142.512C140.323 142.581 140.198 142.603 140.073 142.592C138.159 142.386 136.868 144.068 136.449 145.83C136.279 146.517 136.177 147.558 136.664 148.565C137.027 149.343 137.672 149.903 138.703 150.327C139.666 150.727 140.606 151.07 141.568 150.796C142.01 150.67 142.44 150.464 142.826 150.281C143.29 150.063 143.562 149.709 143.913 149.194C144.581 148.221 144.796 147.34 144.592 146.333Z" fill="white"/>
<path d="M123.424 3.70209C121.555 2.56937 119.143 2.40919 117.093 3.30164C114.205 4.54878 112.11 7.53504 112.62 10.773C112.755 11.654 112.937 12.7066 113.378 13.4961C113.763 14.1941 114.443 14.8005 115.032 15.3382C116.312 16.5053 117.705 16.8485 119.404 16.8485C121.001 16.8371 122.597 16.6654 123.911 15.6586C125.123 14.7204 125.916 13.3359 126.267 11.8485C126.913 9.011 126.244 4.96067 123.424 3.70209Z" fill="#FCD400"/>
<path d="M120.401 1.8028C118.532 0.670082 116.12 0.509901 114.07 1.40235C111.182 2.64948 109.086 5.63574 109.596 8.87372C109.732 9.75473 109.913 10.8074 110.355 11.5968C110.74 12.2948 111.42 12.9012 112.008 13.4389C113.288 14.606 114.681 14.9492 116.38 14.9492C117.977 14.9378 119.574 14.7662 120.888 13.7593C122.1 12.8211 122.892 11.4366 123.244 9.94923C123.889 7.11171 123.21 3.06138 120.401 1.8028ZM122.519 8.77075C122.371 10.1781 121.839 11.5511 120.842 12.5694C119.835 13.5991 118.543 13.9538 117.15 14.0224C115.689 14.0911 114.24 14.0797 113.028 13.1529C112.507 12.7639 112.054 12.2833 111.601 11.8028C111 11.1735 110.808 10.4527 110.593 9.61742C110.196 8.0156 110.264 6.56251 111.102 5.13231C111.748 4.03392 112.699 3.13003 113.809 2.51218C115.384 1.64262 117.184 1.49388 118.815 1.98587C118.861 2.08884 118.928 2.18038 119.053 2.2147C121.896 2.95841 122.802 6.11629 122.519 8.77075Z" fill="black" stroke="black" stroke-width="0.5" stroke-miterlimit="10"/>
<path d="M39.9659 147.008C39.1845 146.539 38.1878 146.471 37.3384 146.848C36.1378 147.363 35.2658 148.61 35.481 149.949C35.5376 150.315 35.6169 150.75 35.7981 151.082C35.9566 151.368 36.2398 151.631 36.4889 151.848C37.0213 152.329 37.5989 152.478 38.301 152.478C38.9693 152.478 39.6262 152.397 40.1698 151.986C40.6681 151.597 41.0079 151.024 41.1438 150.407C41.4043 149.205 41.1325 147.523 39.9659 147.008ZM40.838 149.903C40.77 150.487 40.5549 151.059 40.1471 151.482C39.7281 151.905 39.1958 152.054 38.6182 152.089C38.0179 152.111 37.4063 152.111 36.908 151.734C36.6928 151.574 36.5003 151.368 36.3191 151.173C36.0699 150.91 35.9906 150.613 35.9 150.269C35.7301 149.606 35.7641 148.999 36.1152 148.404C36.387 147.947 36.7721 147.569 37.2364 147.317C37.8933 146.963 38.6408 146.894 39.3204 147.1C39.3317 147.146 39.3657 147.18 39.4223 147.192C40.5888 147.489 40.9626 148.793 40.838 149.903Z" fill="black" stroke="black" stroke-width="0.75" stroke-miterlimit="10"/>
</svg>
