<svg width="112" height="110" viewBox="0 0 112 110" fill="none" xmlns="http://www.w3.org/2000/svg">
<g clip-path="url(#clip0_9_271)">
<path d="M81.9105 57.0002H87.5C88.1439 57.0002 88.6666 56.5522 88.6666 56.0003V42.0002C88.6666 41.4483 88.1439 41.0003 87.5 41.0003H84V34.0002C84 33.4482 83.4773 33.0002 82.8334 33.0002H71.8877L71.043 31.5523C70.7712 31.0873 70.1295 30.8783 69.5671 31.0712L66.1382 32.2472L60.4486 25.4193C60.0962 24.9973 59.4266 24.8753 58.905 25.1402L43.3639 33.0342C43.2975 33.0243 43.2368 33.0002 43.1668 33.0002H26.8334C23.6121 33.0002 21 35.2392 21 38.0003V84.0002C21 84.5522 21.5227 85.0002 22.1666 85.0002H87.5C88.1439 85.0002 88.6666 84.5522 88.6666 84.0002V70.0002C88.6666 69.4482 88.1439 69.0002 87.5 69.0002H81.6666C77.5039 69.0002 74.1778 65.8703 74.7261 62.2112C75.1788 59.1862 78.3521 57.0002 81.9105 57.0002ZM32.2571 41.0003L59.1734 27.3282L63.91 33.0113L40.6082 41.0003H32.2571ZM46.8918 41.0003L69.4364 33.2702L73.9456 41.0003H46.8918Z" fill="white"/>
<path d="M89.8334 59H81.6668C78.9403 59 76.7516 61.015 77.0234 63.4C77.2602 65.478 79.4396 67 81.8755 67H89.8334C90.4773 67 91 66.552 91 66V60C91 59.4479 90.4773 59 89.8334 59Z" fill="white"/>
</g>
<defs>
<clipPath id="clip0_9_271">
<rect width="70" height="60" fill="white" transform="translate(21 25)"/>
</clipPath>
</defs>
</svg>
