<svg width="800" height="800" viewBox="0 0 800 800" fill="none" xmlns="http://www.w3.org/2000/svg">
<path d="M133.333 699.999V616.665C133.333 515.412 215.414 433.332 316.667 433.332H450M266.667 699.999V599.999M533.333 216.665C533.333 290.303 473.637 349.999 400 349.999C326.362 349.999 266.667 290.303 266.667 216.665C266.667 143.027 326.362 83.332 400 83.332C473.637 83.332 533.333 143.027 533.333 216.665ZM733.333 516.665C733.333 599.509 583.333 733.332 583.333 733.332C583.333 733.332 433.333 599.509 433.333 516.665C433.333 433.822 500.49 366.665 583.333 366.665C666.177 366.665 733.333 433.822 733.333 516.665ZM633.333 516.665C633.333 544.279 610.947 566.665 583.333 566.665C555.72 566.665 533.333 544.279 533.333 516.665C533.333 489.052 555.72 466.665 583.333 466.665C610.947 466.665 633.333 489.052 633.333 516.665Z" stroke="white" stroke-width="46.6667" stroke-linecap="round" stroke-linejoin="round"/>
</svg>
