<svg width="50" height="45" viewBox="0 0 50 45" fill="none" xmlns="http://www.w3.org/2000/svg">
<path d="M42.7007 14.9598H6.20438V10.3393C6.20438 9.9308 6.39663 9.53905 6.73885 9.25021C7.08107 8.96137 7.54522 8.7991 8.02919 8.7991H40.8759C41.3599 8.7991 41.824 8.96137 42.1662 9.25021C42.5085 9.53905 42.7007 9.9308 42.7007 10.3393V14.9598ZM42.7007 18.0402V34.9821C42.7007 35.3906 42.5085 35.7824 42.1662 36.0712C41.824 36.3601 41.3599 36.5223 40.8759 36.5223H8.02919C7.54522 36.5223 7.08107 36.3601 6.73885 36.0712C6.39663 35.7824 6.20438 35.3906 6.20438 34.9821V18.0402H42.7007ZM22.6277 25.7411V21.8906L14.4161 28.8214H33.5766V25.7411H22.6277Z" fill="white"/>
</svg>
