<svg width="50" height="50" viewBox="0 0 50 50" fill="none" xmlns="http://www.w3.org/2000/svg">
<g clip-path="url(#clip0_201_11)">
<path d="M42.2164 0H7.7836C3.48484 0 0 3.51304 0 7.84659V42.1534C0 46.487 3.48484 50 7.7836 50H42.2164C46.5152 50 50 46.487 50 42.1534V7.84659C50 3.51304 46.5152 0 42.2164 0Z" fill="#F7C100"/>
<path d="M19.6525 31.834L30.8186 31.834C33.7015 31.834 36.0385 29.4781 36.0385 26.5719C36.0385 23.6658 33.7015 21.3098 30.8186 21.3098H19.6525C16.7697 21.3098 14.4327 23.6658 14.4327 26.5719C14.4327 29.4781 16.7697 31.834 19.6525 31.834Z" fill="white"/>
<path fill-rule="evenodd" clip-rule="evenodd" d="M14.4328 26.6112C14.4252 25.5705 14.7239 24.5509 15.2911 23.6814C15.8584 22.8118 16.6686 22.1314 17.6195 21.726C18.5704 21.3207 19.6191 21.2087 20.6331 21.4042C21.6471 21.5998 22.5808 22.094 23.3161 22.8245C24.0515 23.5549 24.5555 24.4888 24.7643 25.508C24.9732 26.5272 24.8776 27.586 24.4895 28.5504C24.1015 29.5148 23.4385 30.3416 22.5844 30.9262C21.7303 31.5107 20.7234 31.8269 19.691 31.8345C18.3067 31.8447 16.975 31.3002 15.9889 30.3206C15.0028 29.3411 14.4431 28.0068 14.4328 26.6112Z" fill="#211816"/>
<path d="M30.8186 9.22461H19.6526C16.7697 9.22461 14.4327 11.5805 14.4327 14.4867C14.4327 17.3928 16.7697 19.7487 19.6526 19.7487H30.8186C33.7015 19.7487 36.0385 17.3928 36.0385 14.4867C36.0385 11.5805 33.7015 9.22461 30.8186 9.22461Z" fill="white"/>
<path fill-rule="evenodd" clip-rule="evenodd" d="M36.0395 14.4481C36.0471 15.4887 35.7484 16.5083 35.1812 17.3778C34.614 18.2473 33.8038 18.9278 32.853 19.3332C31.9022 19.7385 30.8535 19.8506 29.8395 19.6551C28.8256 19.4597 27.8919 18.9655 27.1565 18.2352C26.4211 17.5048 25.917 16.571 25.7081 15.5519C25.4991 14.5328 25.5946 13.4741 25.9824 12.5096C26.3703 11.5452 27.0331 10.7183 27.8871 10.1336C28.7411 9.54895 29.7479 9.23266 30.7802 9.22476C31.4657 9.21958 32.1456 9.35058 32.7809 9.61028C33.4162 9.86998 33.9946 10.2533 34.483 10.7383C34.9714 11.2233 35.3602 11.8006 35.6272 12.4371C35.8943 13.0737 36.0344 13.757 36.0395 14.4481Z" fill="#211816"/>
<path d="M26.4872 42.7438L27.068 36.8875L28.9726 36.8838C29.2896 36.8823 29.6024 36.9573 29.8847 37.1026C30.1671 37.2479 30.4109 37.4593 30.5956 37.719L30.6038 37.7309C30.9268 38.1924 31.0652 38.7185 31.1113 39.2653C31.1585 39.8544 31.1272 40.442 30.9258 41.011C30.7638 41.4679 30.5336 41.8782 30.1722 42.1997C29.863 42.4789 29.4738 42.6517 29.0607 42.6932C28.2733 42.7764 26.4872 42.7438 26.4872 42.7438ZM28.1851 38.0156L27.8263 41.6095C27.8263 41.6095 28.5999 41.6095 28.8664 41.5578C29.2648 41.4829 29.4944 41.1841 29.6482 40.8296C29.9558 40.1252 29.9635 39.3991 29.7554 38.6704C29.678 38.3991 29.5175 38.1676 29.2248 38.0792C28.891 37.981 28.1851 38.0156 28.1851 38.0156ZM34.581 40.4446L36.6034 36.8663H35.2238L34.0201 39.1081C33.6495 38.3588 32.9297 36.8859 32.9297 36.8859H31.6712C31.6712 36.8859 33.1025 39.8834 33.3629 40.443C33.2845 41.225 33.1327 42.7273 33.1327 42.7273H34.3272L34.581 40.4446ZM39.6726 40.4446L41.6925 36.8652H40.3155L39.1118 39.1071C38.7411 38.3578 38.0214 36.8849 38.0214 36.8849H36.7628C36.7628 36.8849 38.1941 39.8823 38.4546 40.442C38.3761 41.2239 38.2244 42.7263 38.2244 42.7263H39.4168L39.6726 40.4446ZM18.5657 40.0529H21.3433L21.3627 39.3759H18.6118C18.6631 38.7996 18.7144 38.2503 18.7656 37.6751H21.6365C21.6365 37.6751 21.6714 37.2099 21.6878 36.9929H18.0597L17.5983 42.6823H21.4289C21.4289 42.6823 21.4525 42.2296 21.4668 41.9955H18.4042C18.4606 41.3314 18.5129 40.6968 18.5657 40.0529ZM22.8945 40.0529H25.6721L25.6916 39.3759H22.9407C22.9919 38.7996 23.0432 38.2503 23.0945 37.6751H25.9653C25.9653 37.6751 25.9997 37.2099 26.0166 36.9929H22.388L21.9267 42.6823H25.7582C25.7582 42.6823 25.7818 42.2296 25.7962 41.9955H22.7351C22.7895 41.3314 22.8417 40.6968 22.8945 40.0529ZM9.02576 41.7149C9.10383 41.9133 9.222 42.0931 9.37274 42.2429C9.52349 42.3927 9.70352 42.5093 9.90137 42.5852C10.4271 42.7901 11.0042 42.82 11.548 42.6705C11.9218 42.5804 12.2462 42.3475 12.4528 42.0208C12.8707 41.3599 12.6887 40.4017 12.0509 39.9536C11.8361 39.8099 11.6136 39.6781 11.3845 39.5588C11.0149 39.3552 10.6386 39.164 10.27 38.9588C9.90137 38.7536 9.86651 38.3862 9.93111 38.0828C9.99006 37.8053 10.3084 37.5882 10.6391 37.5764C10.7929 37.5707 10.9497 37.5702 11.1046 37.5764C11.5736 37.5939 12.0345 37.9805 12.1017 38.4404C12.113 38.5149 12.1324 38.5888 12.1529 38.6766C12.3667 38.6513 12.8286 38.6017 12.8286 38.6017C12.8286 38.6017 12.805 38.4668 12.7943 38.412C12.681 37.8368 12.398 37.3717 11.8689 37.1061C11.2871 36.8141 10.6688 36.796 10.0623 37.0125C9.53534 37.2001 9.238 37.6239 9.22775 38.2311C9.21698 38.7795 9.42922 39.2296 9.8742 39.5479C10.102 39.7029 10.3384 39.8445 10.5822 39.9722C10.9057 40.1521 11.2394 40.3144 11.5598 40.4999C11.8802 40.6854 12.0186 40.9733 11.9668 41.333C11.9156 41.6689 11.7105 41.8885 11.3901 42.0048C11.0468 42.1288 10.672 42.1325 10.3264 42.0152C9.9511 41.8958 9.67222 41.6715 9.57481 41.2673C9.53483 41.1015 9.46357 40.7614 9.46357 40.7614L8.81763 40.8198C8.81763 40.8198 8.90837 41.4353 9.02576 41.7149ZM14.1548 42.6632H13.4566L13.7488 36.9841H14.0944C14.7408 36.9841 15.3868 36.9841 16.0327 36.9841C16.2224 36.9797 16.4108 37.0169 16.5848 37.0931C17.0098 37.2869 17.2287 37.6446 17.3676 38.072C17.5255 38.5588 17.4702 39.0249 17.2713 39.488C17.0724 39.9511 16.7073 40.1826 16.2352 40.2927C15.7333 40.41 15.2263 40.381 14.7198 40.3857C14.5824 40.3857 14.4455 40.3857 14.2851 40.3857C14.2415 41.15 14.2005 41.8973 14.1548 42.6632ZM14.3086 39.6947C14.3086 39.6947 14.5029 39.6947 14.586 39.6947C15.0069 39.6859 15.4278 39.6725 15.8487 39.6596C16.0353 39.6539 16.1937 39.5717 16.3464 39.4715C16.8837 39.119 16.9104 37.9397 16.2618 37.6895C15.6718 37.581 15.0556 37.6554 14.4214 37.6301C14.3845 38.3226 14.3102 39.6947 14.3102 39.6947H14.3086Z" fill="#211816"/>
</g>
<defs>
<clipPath id="clip0_201_11">
<rect width="50" height="50" fill="white"/>
</clipPath>
</defs>
</svg>
