<svg width="1100" height="1100" viewBox="0 0 1100 1100" fill="none" xmlns="http://www.w3.org/2000/svg">
<g clip-path="url(#clip0_322_17)">
<path fill-rule="evenodd" clip-rule="evenodd" d="M550 950C470.887 950 393.55 926.54 327.771 882.588C261.991 838.635 210.723 776.164 180.448 703.073C150.173 629.983 142.252 549.557 157.686 471.964C173.12 394.372 211.218 323.099 267.159 267.158C323.1 211.217 394.372 173.12 471.964 157.686C549.557 142.252 629.981 150.174 703.072 180.449C776.162 210.724 838.636 261.992 882.588 327.772C926.541 393.552 950 470.888 950 550C950 656.087 907.855 757.828 832.841 832.843C757.826 907.857 656.086 950 550 950ZM550 216.667C484.073 216.667 419.627 236.216 364.811 272.844C309.995 309.471 267.27 361.531 242.041 422.439C216.812 483.348 210.209 550.37 223.071 615.03C235.933 679.69 267.681 739.085 314.298 785.703C360.916 832.32 420.309 864.067 484.969 876.928C549.629 889.79 616.65 883.189 677.559 857.96C738.468 832.731 790.529 790.007 827.156 735.19C863.783 680.374 883.333 615.927 883.333 550C883.333 461.595 848.213 376.81 785.701 314.298C723.189 251.785 638.405 216.667 550 216.667ZM624.332 673.333L526.668 575.367C523.265 572.023 520.612 567.992 518.888 563.544C517.164 559.095 516.406 554.331 516.666 549.567V383.333C516.666 374.493 520.177 366.014 526.428 359.763C532.679 353.512 541.159 350 550 350C558.84 350 567.32 353.512 573.572 359.763C579.823 366.014 583.333 374.493 583.333 383.333V534.367L673.331 624.367C676.547 627.584 679.1 631.403 680.839 635.606C682.578 639.809 683.473 644.313 683.471 648.862C683.47 653.41 682.569 657.914 680.827 662.116C679.085 666.317 676.533 670.135 673.315 673.35C670.098 676.565 666.279 679.115 662.077 680.854C657.874 682.594 653.368 683.488 648.82 683.487C644.271 683.485 639.769 682.588 635.567 680.846C631.365 679.104 627.548 676.551 624.332 673.333Z" fill="white"/>
</g>
<defs>
<clipPath id="clip0_322_17">
<rect width="800" height="800" fill="white" transform="translate(150 150)"/>
</clipPath>
</defs>
</svg>
